<svg width="26" height="26" viewBox="0 0 26 26" fill="none" xmlns="http://www.w3.org/2000/svg">
<path fill-rule="evenodd" clip-rule="evenodd" d="M10.0287 23.1028C10.1704 22.9611 12.2483 21.4971 12.6261 21.261C13.0984 20.9304 13.7595 21.2138 14.279 21.3082C14.9402 21.4499 15.6013 21.4499 16.3097 21.5443L16.7348 22.7722C14.893 23.575 11.965 23.7639 10.076 23.1028H10.0287ZM7.47856 13.6577C8.13971 14.1299 8.75364 14.7439 9.4148 15.2633C10.0287 15.7356 10.926 16.2079 11.3983 16.7746C11.4455 17.1524 11.4927 19.1358 11.4455 19.372C11.3038 19.8442 8.80087 21.261 8.23416 21.4971C7.1952 21.9694 7.38411 22.0166 6.48682 21.3082C5.49509 20.5054 5.68399 20.9304 5.54231 19.5609C5.44786 18.7108 5.40063 17.8135 5.44786 16.9635C5.44786 16.4912 5.49509 14.8383 5.73121 14.4605C5.87289 14.2244 7.24243 13.6577 7.52578 13.6105L7.47856 13.6577ZM18.671 21.7332C18.4349 21.261 18.3876 20.9776 18.3876 20.4582C19.9461 19.0886 19.0016 18.333 22.4963 17.2468C22.0712 18.6164 19.8516 21.1193 18.671 21.686V21.7332ZM3.22826 17.294C2.56711 16.444 2.09485 13.941 2.1893 12.8548L3.46439 14.0827L3.22826 17.294ZM21.9296 7.28224C23.1102 8.55733 23.8658 12.477 23.3935 14.1772C22.6852 14.6966 20.9851 15.8301 20.135 15.8773L18.3876 13.7994C18.5293 12.9965 18.8127 12.1937 18.9544 11.3436C19.096 10.4463 19.1433 9.54906 19.2849 8.74623L21.9296 7.32946V7.28224ZM13.9485 6.14883C14.279 6.05438 15.9791 7.51837 16.357 7.80172C17.2542 8.5101 17.3959 8.17952 16.8292 11.0131C16.357 13.5632 16.357 13.2326 15.2235 13.7049C14.6096 13.941 12.6261 14.9328 12.1067 14.6022C11.4455 14.1772 10.2649 13.2326 9.69815 12.7132C8.47029 11.627 8.56474 12.477 8.98977 9.78519C9.27313 7.84894 8.94255 8.1323 10.7371 7.28224C11.5872 6.90443 13.0039 6.33773 13.9012 6.14883H13.9485ZM4.92838 5.62935C5.63676 4.59039 7.57301 3.45697 8.75364 2.93749C10.3593 2.22911 12.5317 1.94576 14.279 2.22911C14.1374 2.65414 13.9485 3.03194 13.7595 3.45697C13.4762 4.11813 13.5234 4.07091 12.8623 4.25981C11.965 4.49593 11.0677 4.82651 10.2649 5.20432C9.79261 5.39322 8.13971 6.2905 7.80913 6.2905C7.33688 6.2905 5.25896 5.86547 4.92838 5.62935ZM0.0641534 14.0827C0.772536 21.0721 7.05353 26.2197 14.0429 25.5585C21.0795 24.8973 26.2743 18.6164 25.6131 11.5798C24.952 4.59039 18.671 -0.604419 11.6344 0.056738C4.5978 0.717895 -0.644229 7.04611 0.0641534 14.0827Z" fill="black"/>
</svg>
